<svg width="86" height="80" viewBox="0 0 86 80" fill="none" xmlns="http://www.w3.org/2000/svg">
<path d="M42.9091 10C27.1104 20 17.8788 35.2724 17.8788 46.6667C17.8788 61.3943 30.6862 70 42.9091 70C55.132 70 67.9394 61.3943 67.9394 46.6667C67.9394 35.2724 58.7078 20 42.9091 10Z" fill="black" fill-opacity="0.15"/>
<path d="M41.1212 55C36.1841 55 32.1818 51.269 32.1818 46.6667M17.8788 46.6667C17.8788 35.2724 27.1104 20 42.9091 10C58.7078 20 67.9394 35.2724 67.9394 46.6667C67.9394 61.3943 55.132 70 42.9091 70C30.6862 70 17.8788 61.3943 17.8788 46.6667Z" stroke="#0EA3FF" stroke-width="2" stroke-linecap="round" stroke-linejoin="round"/>
</svg>
