<svg width="59" height="70" viewBox="0 0 59 70" fill="none" xmlns="http://www.w3.org/2000/svg">
<path d="M34.7073 48.3333L35.8423 56.7367C36.6439 62.0833 37.0483 64.7567 36.1438 66.5433C35.2393 68.3333 33.4907 68.3333 29.9898 68.3333H29.1385C25.6376 68.3333 23.8889 68.3333 22.9844 66.5433C22.0835 64.7567 22.4843 62.0833 23.2859 56.7367L24.421 48.3333M1.18805 4.49999C2.10773 3.60479 3.20983 2.89282 4.42864 2.40655C5.64744 1.92029 6.95797 1.66968 8.28207 1.66968C9.60616 1.66968 10.9167 1.92029 12.1355 2.40655C13.3543 2.89282 14.4564 3.60479 15.3761 4.49999L28.1205 16.7767C26.3277 17.054 24.6688 17.8421 23.3683 19.0345C22.0678 20.2269 21.1884 21.7659 20.8491 23.4433L1.18805 4.49999ZM57.9402 45.5C57.0205 46.3952 55.9184 47.1072 54.6996 47.5934C53.4808 48.0797 52.1703 48.3303 50.8462 48.3303C49.5221 48.3303 48.2115 48.0797 46.9927 47.5934C45.7739 47.1072 44.6718 46.3952 43.7522 45.5L31.0077 33.2233C32.8005 32.946 34.4594 32.1578 35.76 30.9655C37.0605 29.7731 37.9399 28.2341 38.2791 26.5567L57.9402 45.5ZM57.9402 4.49999C57.0205 3.60479 55.9184 2.89282 54.6996 2.40655C53.4808 1.92029 52.1703 1.66968 50.8462 1.66968C49.5221 1.66968 48.2115 1.92029 46.9927 2.40655C45.7739 2.89282 44.6718 3.60479 43.7522 4.49999L31.0077 16.7767C32.8005 17.054 34.4594 17.8421 35.76 19.0345C37.0605 20.2269 37.9399 21.7659 38.2791 23.4433L57.9402 4.49999ZM1.18805 45.5C2.10773 46.3952 3.20983 47.1072 4.42864 47.5934C5.64744 48.0797 6.95797 48.3303 8.28207 48.3303C9.60616 48.3303 10.9167 48.0797 12.1355 47.5934C13.3543 47.1072 14.4564 46.3952 15.3761 45.5L28.124 33.2233C26.3312 32.946 24.6723 32.1578 23.3718 30.9655C22.0713 29.7731 21.1919 28.2341 20.8527 26.5567L1.18805 45.5Z" stroke="white" stroke-width="1.5" stroke-linecap="round" stroke-linejoin="round"/>
</svg>
