<svg width="61" height="64" viewBox="0 0 61 64" fill="none" xmlns="http://www.w3.org/2000/svg">
<path opacity="0.15" d="M21.4008 59.3201C21.4008 59.5827 21.7953 59.8428 22.5617 60.0854C23.328 60.3281 24.4513 60.5486 25.8674 60.7343C27.2835 60.92 28.9647 61.0673 30.8149 61.1678C32.6651 61.2683 34.6482 61.3201 36.6508 61.3201C38.6535 61.3201 40.6365 61.2683 42.4867 61.1678C44.337 61.0673 46.0181 60.92 47.4342 60.7343C48.8503 60.5486 49.9736 60.3281 50.74 60.0854C51.5064 59.8428 51.9008 59.5827 51.9008 59.3201C51.9008 59.0574 51.5064 58.7973 50.74 58.5547C49.9736 58.312 48.8503 58.0916 47.4342 57.9059C46.0181 57.7201 44.337 57.5728 42.4867 57.4723C40.6365 57.3718 38.6535 57.3201 36.6508 57.3201C34.6482 57.3201 32.6651 57.3718 30.8149 57.4723C28.9647 57.5728 27.2835 57.7201 25.8674 57.9059C24.4513 58.0916 23.328 58.312 22.5617 58.5547C21.7953 58.7973 21.4008 59.0574 21.4008 59.3201Z" fill="#45413C"/>
<path d="M1.27083 9.87993C1.24595 9.60647 1.30218 9.33161 1.43184 9.09295C1.5615 8.85429 1.75825 8.66348 1.9952 8.5466C5.64249 6.7866 21.2992 0.199931 35.3165 9.63993C45.75 16.6266 51.4179 19.0666 54.1629 19.9199C54.3659 19.9941 54.5477 20.121 54.6913 20.2889C54.8348 20.4568 54.9354 20.6602 54.9837 20.88C55.0319 21.0997 55.0262 21.3288 54.9671 21.5456C54.9081 21.7625 54.7975 21.9601 54.6458 22.1199C50.4267 26.6666 37.6802 37.8666 20.8417 32.6266C4.00312 27.3866 1.63937 13.5866 1.27083 9.87993Z" fill="#6DD627"/>
<path d="M35.3164 14.9866C43.6658 20.5999 48.9906 23.2799 52.1931 24.5466C53.2098 23.6399 54.0485 22.7999 54.7348 22.1199C54.8856 21.9564 54.9941 21.7552 55.0499 21.5352C55.1056 21.3153 55.1068 21.0841 55.0533 20.8636C54.9998 20.6431 54.8934 20.4406 54.7442 20.2754C54.595 20.1102 54.408 19.9878 54.201 19.9199C51.4179 19.0666 45.75 16.6266 35.3164 9.63993C21.2992 0.199931 5.64248 6.7866 2.0079 8.5466C1.77095 8.66348 1.57419 8.85429 1.44453 9.09295C1.31487 9.33161 1.25864 9.60647 1.28352 9.87993C1.41843 11.2342 1.66938 12.5729 2.03332 13.8799C5.71873 12.0933 21.3246 5.55993 35.3164 14.9866Z" fill="#9CEB60"/>
<path d="M1.27083 9.87993C1.24595 9.60647 1.30218 9.33161 1.43184 9.09295C1.5615 8.85429 1.75825 8.66348 1.9952 8.5466C5.64249 6.7866 21.2992 0.199931 35.3165 9.63993C45.75 16.6266 51.4179 19.0666 54.1629 19.9199C54.3659 19.9941 54.5477 20.121 54.6913 20.2889C54.8348 20.4568 54.9354 20.6602 54.9837 20.88C55.0319 21.0997 55.0262 21.3288 54.9671 21.5456C54.908 21.7625 54.7975 21.9601 54.6458 22.1199C50.4267 26.6666 37.6802 37.8666 20.8417 32.6266C4.00312 27.3866 1.63937 13.5866 1.27083 9.87993Z" stroke="#45413C" stroke-width="0.5" stroke-linecap="round" stroke-linejoin="round"/>
<path d="M42.4204 42.7867C40.0672 44.2867 38.0247 46.2668 36.4137 48.6097C34.8028 50.9525 33.6561 53.6107 33.0417 56.4267C32.9785 56.7564 33.0363 57.099 33.2036 57.3858C33.371 57.6726 33.6354 57.8825 33.944 57.9734C36.6072 58.7026 39.383 58.8627 42.1064 58.4442C44.8298 58.0256 47.4452 57.037 49.7972 55.537C52.1492 54.0369 54.1898 52.0562 55.7977 49.7124C57.4057 47.3686 58.5482 44.7096 59.1573 41.8934C59.2211 41.5655 59.165 41.2244 59.0002 40.9379C58.8354 40.6514 58.574 40.4404 58.2677 40.3467C55.6052 39.6181 52.8303 39.4587 50.1079 39.8779C47.3854 40.297 44.7712 41.2863 42.4204 42.7867Z" fill="#6DD627"/>
<path d="M33.9694 57.9733H34.1346C36.0132 53.1946 39.4704 49.2864 43.8724 46.9649C48.2744 44.6434 53.3265 44.0641 58.1025 45.3333C58.5402 44.2222 58.8929 43.0763 59.1573 41.9066C59.2211 41.5787 59.165 41.2376 59.0002 40.9511C58.8354 40.6646 58.5739 40.4536 58.2677 40.3599C55.6044 39.6266 52.8278 39.463 50.103 39.8788C47.3782 40.2947 44.761 41.2816 42.4073 42.7807C40.0536 44.2798 38.0114 46.2605 36.4024 48.6048C34.7934 50.9492 33.6505 53.6092 33.0417 56.4266C32.9795 56.7599 33.0409 57.1055 33.2133 57.3929C33.3857 57.6803 33.6561 57.8879 33.9694 57.9733Z" fill="#9CEB60"/>
<path d="M42.4204 42.7867C40.0672 44.2867 38.0247 46.2668 36.4137 48.6097C34.8028 50.9525 33.6561 53.6107 33.0417 56.4267C32.9785 56.7564 33.0363 57.099 33.2036 57.3858C33.371 57.6726 33.6354 57.8825 33.944 57.9734C36.6072 58.7026 39.383 58.8627 42.1064 58.4442C44.8298 58.0256 47.4452 57.037 49.7972 55.537C52.1492 54.0369 54.1898 52.0562 55.7977 49.7124C57.4057 47.3686 58.5482 44.7096 59.1573 41.8934C59.2211 41.5655 59.165 41.2244 59.0002 40.9379C58.8354 40.6514 58.574 40.4404 58.2677 40.3467C55.6052 39.6181 52.8303 39.4587 50.1079 39.8779C47.3854 40.297 44.7712 41.2863 42.4204 42.7867Z" stroke="#45413C" stroke-width="0.5" stroke-linecap="round" stroke-linejoin="round"/>
<path d="M59.081 41.0533C56.3833 41.1626 53.7363 41.8563 51.3065 43.0908C48.8767 44.3253 46.7166 46.0739 44.9621 48.2266M1.33435 9.3333C8.75602 9.0933 18.5923 10.9466 25.4802 15.32" stroke="#45413C" stroke-width="0.5" stroke-linecap="round" stroke-linejoin="round"/>
</svg>
