<svg width="68" height="69" viewBox="0 0 68 69" fill="none" xmlns="http://www.w3.org/2000/svg">
<path d="M19.874 22.6136C14.7156 29.3411 14.8059 41.2922 21.3987 47.2164C28.884 53.9386 39.4187 53.8685 46.0434 47.6854C53.9856 40.2679 53.5287 27.9234 46.5056 20.9318C39.4453 13.9024 26.8281 13.5358 19.874 22.6136Z" fill="#FCC11A"/>
<path d="M28.1563 20.3064C26.1163 19.39 23.885 21.8858 22.9128 23.5893C21.9406 25.2981 21.0375 28.6457 23.1094 29.5028C25.1813 30.3545 26.6688 28.9098 28.1616 26.414C29.6438 23.9181 30.4885 21.3576 28.1563 20.3064Z" fill="#FEE269"/>
<path d="M33.4688 10.9269C32.9747 11.8648 33.1394 12.5872 34.1222 12.8244C35.105 13.0616 41.2197 14.0696 41.735 14.1019C42.4841 14.1505 42.7603 13.5791 42.67 12.916C42.5744 12.253 41.0816 2.96491 40.9434 2.11319C40.8053 1.26147 39.9181 0.409755 39.0734 1.54718C38.2288 2.6846 33.8406 10.2207 33.4688 10.9269ZM49.3 17.3741C48.3384 17.6759 48.365 18.2743 48.8803 19.0344C49.3956 19.7944 52.9444 25.2875 53.2684 25.6702C53.5978 26.0476 54.1556 26.1446 54.6231 25.5732C55.0906 25.0072 60.9238 16.7056 61.3488 16.1881C62.05 15.3364 61.6303 14.4362 60.5572 14.7165C59.7391 14.9375 49.9056 17.1854 49.3 17.3741ZM56.6313 33.3465C55.9406 32.9476 55.0428 33.0608 54.8091 33.961C54.5753 34.8612 53.55 41.4001 53.4544 41.9715C53.3588 42.5429 53.7838 43.1089 54.4797 42.9687C55.1756 42.8286 64.8125 41.3785 65.4553 41.2168C66.5763 40.9311 66.9481 39.7937 65.7847 38.9419C65.0303 38.3867 57.2847 33.7238 56.6313 33.3465ZM48.9228 48.8391C49.6666 48.4348 50.3253 48.7421 50.5113 49.5992C50.6972 50.4509 52.7531 59.173 53.0825 60.7848C53.2472 61.5934 52.3334 62.2564 51.5897 61.782C50.8406 61.3076 42.7231 55.5666 42.2025 55.0976C41.4534 54.4346 41.9741 53.7446 42.3406 53.3942C43.0844 52.6773 48.2216 49.2219 48.9228 48.8391ZM26.3181 53.626C25.3778 53.5344 25.1016 54.3861 25.245 55.1408C25.3831 55.9009 26.7856 65.5123 26.8813 66.2293C27.0194 67.2697 28.0978 67.7009 28.7938 66.6552C29.4897 65.6094 34.2922 57.8145 34.68 57.0814C35.3813 55.7553 34.8659 55.4696 34.1647 55.1408C33.4688 54.8119 27.3009 53.723 26.3181 53.626ZM12.8722 42.586C13.5256 41.4971 14.365 41.7828 14.9759 42.8232C15.3903 43.5348 18.8966 48.3216 19.2259 48.8391C19.5553 49.362 19.6934 50.3539 18.6681 50.5911C17.6322 50.8337 9.27564 53.06 7.96876 53.2972C6.66189 53.5344 5.91282 52.494 6.7522 51.3566C7.24095 50.6881 12.5003 43.2059 12.8722 42.586ZM11.0978 34.3383C12.2931 34.8774 12.8563 34.6833 13.1059 33.8155C13.4353 32.678 14.4128 27.4653 14.4606 26.2794C14.4925 25.5085 14.1791 24.7646 13.0103 24.9533C11.8416 25.1419 3.4372 26.3333 2.36407 26.7106C1.11564 27.1526 1.20595 28.5434 2.0347 28.9855C3.01751 29.5083 10.2531 33.961 11.0978 34.3383ZM25.6222 14.4362C26.2969 13.8917 26.0897 13.1101 25.4841 12.6842C24.8784 12.2584 17.3772 6.75452 16.4263 5.99983C15.5869 5.33679 14.5563 5.57397 14.8378 7.08874C15.0397 8.17765 17.4303 17.7083 17.595 18.3659C17.7809 19.126 18.3441 19.5033 18.9975 19.029C19.6403 18.56 24.9209 15.0076 25.6222 14.4362Z" fill="#FFA722"/>
</svg>
